<mxfile host="app.diagrams.net" agent="Mozilla/5.0 (Windows NT 10.0; Win64; x64) AppleWebKit/537.36 (KHTML, like Gecko) Chrome/140.0.0.0 Safari/537.36" version="28.2.5">
  <diagram name="Page-1" id="SBJDK3BSHLiQm76Sx2z4">
    <mxGraphModel dx="2084" dy="1054" grid="1" gridSize="10" guides="1" tooltips="1" connect="1" arrows="1" fold="1" page="1" pageScale="1" pageWidth="850" pageHeight="1100" math="0" shadow="0">
      <root>
        <mxCell id="0" />
        <mxCell id="1" parent="0" />
        <mxCell id="j_C7mCFHIU3GXkhyZzB0-1" style="edgeStyle=orthogonalEdgeStyle;rounded=0;orthogonalLoop=1;jettySize=auto;html=1;entryX=0;entryY=0.5;entryDx=0;entryDy=0;" edge="1" parent="1" source="j_C7mCFHIU3GXkhyZzB0-7" target="j_C7mCFHIU3GXkhyZzB0-18">
          <mxGeometry relative="1" as="geometry">
            <Array as="points">
              <mxPoint x="350" y="345" />
            </Array>
          </mxGeometry>
        </mxCell>
        <mxCell id="j_C7mCFHIU3GXkhyZzB0-2" style="edgeStyle=orthogonalEdgeStyle;rounded=0;orthogonalLoop=1;jettySize=auto;html=1;entryX=0;entryY=0.5;entryDx=0;entryDy=0;" edge="1" parent="1" source="j_C7mCFHIU3GXkhyZzB0-7" target="j_C7mCFHIU3GXkhyZzB0-9">
          <mxGeometry relative="1" as="geometry">
            <Array as="points">
              <mxPoint x="410" y="480" />
              <mxPoint x="410" y="605" />
            </Array>
          </mxGeometry>
        </mxCell>
        <mxCell id="j_C7mCFHIU3GXkhyZzB0-3" style="edgeStyle=orthogonalEdgeStyle;rounded=0;orthogonalLoop=1;jettySize=auto;html=1;entryX=0;entryY=0.5;entryDx=0;entryDy=0;" edge="1" parent="1" source="j_C7mCFHIU3GXkhyZzB0-7" target="j_C7mCFHIU3GXkhyZzB0-10">
          <mxGeometry relative="1" as="geometry">
            <Array as="points">
              <mxPoint x="350" y="685" />
            </Array>
          </mxGeometry>
        </mxCell>
        <mxCell id="j_C7mCFHIU3GXkhyZzB0-4" style="edgeStyle=orthogonalEdgeStyle;rounded=0;orthogonalLoop=1;jettySize=auto;html=1;entryX=0;entryY=0.5;entryDx=0;entryDy=0;" edge="1" parent="1" source="j_C7mCFHIU3GXkhyZzB0-7" target="j_C7mCFHIU3GXkhyZzB0-11">
          <mxGeometry relative="1" as="geometry">
            <Array as="points">
              <mxPoint x="335" y="755" />
            </Array>
          </mxGeometry>
        </mxCell>
        <mxCell id="j_C7mCFHIU3GXkhyZzB0-5" style="edgeStyle=orthogonalEdgeStyle;rounded=0;orthogonalLoop=1;jettySize=auto;html=1;" edge="1" parent="1" source="j_C7mCFHIU3GXkhyZzB0-7" target="j_C7mCFHIU3GXkhyZzB0-8">
          <mxGeometry relative="1" as="geometry" />
        </mxCell>
        <mxCell id="j_C7mCFHIU3GXkhyZzB0-6" style="edgeStyle=orthogonalEdgeStyle;rounded=0;orthogonalLoop=1;jettySize=auto;html=1;endArrow=block;endFill=0;" edge="1" parent="1" source="j_C7mCFHIU3GXkhyZzB0-7" target="j_C7mCFHIU3GXkhyZzB0-34">
          <mxGeometry relative="1" as="geometry">
            <Array as="points">
              <mxPoint x="250" y="465" />
              <mxPoint x="250" y="870" />
            </Array>
          </mxGeometry>
        </mxCell>
        <mxCell id="j_C7mCFHIU3GXkhyZzB0-7" value="Người dùng" style="shape=umlActor;verticalLabelPosition=bottom;verticalAlign=top;html=1;outlineConnect=0;" vertex="1" parent="1">
          <mxGeometry x="320" y="435" width="30" height="60" as="geometry" />
        </mxCell>
        <mxCell id="j_C7mCFHIU3GXkhyZzB0-8" value="Đăng nhập" style="ellipse;whiteSpace=wrap;html=1;" vertex="1" parent="1">
          <mxGeometry x="610" y="430" width="550" height="70" as="geometry" />
        </mxCell>
        <mxCell id="j_C7mCFHIU3GXkhyZzB0-9" value="Upload tài liệu" style="ellipse;whiteSpace=wrap;html=1;" vertex="1" parent="1">
          <mxGeometry x="470" y="570" width="140" height="70" as="geometry" />
        </mxCell>
        <mxCell id="j_C7mCFHIU3GXkhyZzB0-10" value="Xóa tài liệu" style="ellipse;whiteSpace=wrap;html=1;" vertex="1" parent="1">
          <mxGeometry x="550" y="650" width="140" height="70" as="geometry" />
        </mxCell>
        <mxCell id="j_C7mCFHIU3GXkhyZzB0-11" value="Cập nhật tài liệu" style="ellipse;whiteSpace=wrap;html=1;" vertex="1" parent="1">
          <mxGeometry x="660" y="720" width="140" height="70" as="geometry" />
        </mxCell>
        <mxCell id="j_C7mCFHIU3GXkhyZzB0-12" value="Thay đổi thông tin cá nhân" style="ellipse;whiteSpace=wrap;html=1;" vertex="1" parent="1">
          <mxGeometry x="950" y="570" width="140" height="70" as="geometry" />
        </mxCell>
        <mxCell id="j_C7mCFHIU3GXkhyZzB0-13" value="&amp;lt;&amp;lt; Extend &amp;gt;&amp;gt;" style="endArrow=open;endSize=12;dashed=1;html=1;rounded=0;exitX=1;exitY=0.5;exitDx=0;exitDy=0;entryX=0;entryY=0.5;entryDx=0;entryDy=0;" edge="1" parent="1" source="j_C7mCFHIU3GXkhyZzB0-9" target="j_C7mCFHIU3GXkhyZzB0-8">
          <mxGeometry width="160" relative="1" as="geometry">
            <mxPoint x="760" y="560" as="sourcePoint" />
            <mxPoint x="920" y="560" as="targetPoint" />
          </mxGeometry>
        </mxCell>
        <mxCell id="j_C7mCFHIU3GXkhyZzB0-14" value="&amp;lt;&amp;lt; Extend &amp;gt;&amp;gt;" style="endArrow=open;endSize=12;dashed=1;html=1;rounded=0;exitX=1;exitY=0.5;exitDx=0;exitDy=0;entryX=0;entryY=1;entryDx=0;entryDy=0;" edge="1" parent="1" source="j_C7mCFHIU3GXkhyZzB0-10" target="j_C7mCFHIU3GXkhyZzB0-8">
          <mxGeometry x="0.0767" y="-40" width="160" relative="1" as="geometry">
            <mxPoint x="660" y="595" as="sourcePoint" />
            <mxPoint x="730" y="460" as="targetPoint" />
            <mxPoint as="offset" />
          </mxGeometry>
        </mxCell>
        <mxCell id="j_C7mCFHIU3GXkhyZzB0-15" value="&amp;lt;&amp;lt; Extend &amp;gt;&amp;gt;" style="endArrow=open;endSize=12;dashed=1;html=1;rounded=0;exitX=0.5;exitY=0;exitDx=0;exitDy=0;entryX=0.746;entryY=0.995;entryDx=0;entryDy=0;entryPerimeter=0;" edge="1" parent="1" source="j_C7mCFHIU3GXkhyZzB0-12" target="j_C7mCFHIU3GXkhyZzB0-8">
          <mxGeometry width="160" relative="1" as="geometry">
            <mxPoint x="750" y="695" as="sourcePoint" />
            <mxPoint x="751" y="485" as="targetPoint" />
            <Array as="points" />
          </mxGeometry>
        </mxCell>
        <mxCell id="j_C7mCFHIU3GXkhyZzB0-16" value="Quản lý tài khoàn&amp;nbsp;&lt;div&gt;người dùng&lt;/div&gt;" style="ellipse;whiteSpace=wrap;html=1;" vertex="1" parent="1">
          <mxGeometry x="880" y="190" width="140" height="70" as="geometry" />
        </mxCell>
        <mxCell id="j_C7mCFHIU3GXkhyZzB0-17" value="&amp;lt;&amp;lt; Extend &amp;gt;&amp;gt;" style="endArrow=open;endSize=12;dashed=1;html=1;rounded=0;exitX=0.441;exitY=1.005;exitDx=0;exitDy=0;entryX=0.255;entryY=0.07;entryDx=0;entryDy=0;entryPerimeter=0;exitPerimeter=0;" edge="1" parent="1" source="j_C7mCFHIU3GXkhyZzB0-16">
          <mxGeometry width="160" relative="1" as="geometry">
            <mxPoint x="910" y="245.1" as="sourcePoint" />
            <mxPoint x="940.2500000000005" y="430.0000000000001" as="targetPoint" />
          </mxGeometry>
        </mxCell>
        <mxCell id="j_C7mCFHIU3GXkhyZzB0-18" value="Tải tài liệu" style="ellipse;whiteSpace=wrap;html=1;" vertex="1" parent="1">
          <mxGeometry x="570" y="310" width="140" height="70" as="geometry" />
        </mxCell>
        <mxCell id="j_C7mCFHIU3GXkhyZzB0-19" value="&amp;lt;&amp;lt; Extend &amp;gt;&amp;gt;" style="endArrow=open;endSize=12;dashed=1;html=1;rounded=0;exitX=1;exitY=1;exitDx=0;exitDy=0;entryX=0;entryY=0;entryDx=0;entryDy=0;" edge="1" parent="1" source="j_C7mCFHIU3GXkhyZzB0-18" target="j_C7mCFHIU3GXkhyZzB0-8">
          <mxGeometry width="160" relative="1" as="geometry">
            <mxPoint x="752" y="230" as="sourcePoint" />
            <mxPoint x="750" y="425" as="targetPoint" />
          </mxGeometry>
        </mxCell>
        <mxCell id="j_C7mCFHIU3GXkhyZzB0-20" value="&amp;lt;&amp;lt; Extend &amp;gt;&amp;gt;" style="endArrow=open;endSize=12;dashed=1;html=1;rounded=0;exitX=1;exitY=0.5;exitDx=0;exitDy=0;entryX=0.339;entryY=0.992;entryDx=0;entryDy=0;entryPerimeter=0;" edge="1" parent="1" source="j_C7mCFHIU3GXkhyZzB0-11" target="j_C7mCFHIU3GXkhyZzB0-8">
          <mxGeometry width="160" relative="1" as="geometry">
            <mxPoint x="812" y="728" as="sourcePoint" />
            <mxPoint x="810" y="532" as="targetPoint" />
          </mxGeometry>
        </mxCell>
        <mxCell id="j_C7mCFHIU3GXkhyZzB0-21" style="edgeStyle=orthogonalEdgeStyle;rounded=0;orthogonalLoop=1;jettySize=auto;html=1;entryX=1;entryY=0.5;entryDx=0;entryDy=0;" edge="1" parent="1" source="j_C7mCFHIU3GXkhyZzB0-24" target="j_C7mCFHIU3GXkhyZzB0-16">
          <mxGeometry relative="1" as="geometry">
            <Array as="points">
              <mxPoint x="1375" y="225" />
            </Array>
          </mxGeometry>
        </mxCell>
        <mxCell id="j_C7mCFHIU3GXkhyZzB0-22" style="edgeStyle=orthogonalEdgeStyle;rounded=0;orthogonalLoop=1;jettySize=auto;html=1;" edge="1" parent="1" source="j_C7mCFHIU3GXkhyZzB0-24" target="j_C7mCFHIU3GXkhyZzB0-8">
          <mxGeometry relative="1" as="geometry" />
        </mxCell>
        <mxCell id="j_C7mCFHIU3GXkhyZzB0-23" style="edgeStyle=orthogonalEdgeStyle;rounded=0;orthogonalLoop=1;jettySize=auto;html=1;exitX=0;exitY=0.3333333333333333;exitDx=0;exitDy=0;exitPerimeter=0;entryX=1;entryY=0.5;entryDx=0;entryDy=0;" edge="1" parent="1" source="j_C7mCFHIU3GXkhyZzB0-24" target="j_C7mCFHIU3GXkhyZzB0-29">
          <mxGeometry relative="1" as="geometry">
            <Array as="points">
              <mxPoint x="1360" y="325" />
            </Array>
          </mxGeometry>
        </mxCell>
        <mxCell id="j_C7mCFHIU3GXkhyZzB0-24" value="Quản trị viên" style="shape=umlActor;verticalLabelPosition=bottom;verticalAlign=top;html=1;outlineConnect=0;" vertex="1" parent="1">
          <mxGeometry x="1360" y="430" width="30" height="60" as="geometry" />
        </mxCell>
        <mxCell id="j_C7mCFHIU3GXkhyZzB0-25" value="Xem thông tin tài khoản" style="ellipse;whiteSpace=wrap;html=1;" vertex="1" parent="1">
          <mxGeometry x="830" y="650" width="140" height="70" as="geometry" />
        </mxCell>
        <mxCell id="j_C7mCFHIU3GXkhyZzB0-26" value="&amp;lt;&amp;lt; Extend &amp;gt;&amp;gt;" style="endArrow=open;endSize=12;dashed=1;html=1;rounded=0;exitX=0.5;exitY=0;exitDx=0;exitDy=0;entryX=0.531;entryY=0.995;entryDx=0;entryDy=0;entryPerimeter=0;" edge="1" parent="1" source="j_C7mCFHIU3GXkhyZzB0-25" target="j_C7mCFHIU3GXkhyZzB0-8">
          <mxGeometry width="160" relative="1" as="geometry">
            <mxPoint x="927" y="799" as="sourcePoint" />
            <mxPoint x="911" y="570" as="targetPoint" />
            <Array as="points" />
          </mxGeometry>
        </mxCell>
        <mxCell id="j_C7mCFHIU3GXkhyZzB0-27" value="Tìm kiếm tài liệu" style="ellipse;whiteSpace=wrap;html=1;" vertex="1" parent="1">
          <mxGeometry x="1240" y="570" width="140" height="70" as="geometry" />
        </mxCell>
        <mxCell id="j_C7mCFHIU3GXkhyZzB0-28" value="Xem trước tài liệu" style="ellipse;whiteSpace=wrap;html=1;" vertex="1" parent="1">
          <mxGeometry x="1090" y="570" width="140" height="70" as="geometry" />
        </mxCell>
        <mxCell id="j_C7mCFHIU3GXkhyZzB0-29" value="Quản lý tài liệu" style="ellipse;whiteSpace=wrap;html=1;" vertex="1" parent="1">
          <mxGeometry x="1010" y="290" width="140" height="70" as="geometry" />
        </mxCell>
        <mxCell id="j_C7mCFHIU3GXkhyZzB0-30" value="&amp;lt;&amp;lt; Extend &amp;gt;&amp;gt;" style="endArrow=open;endSize=12;dashed=1;html=1;rounded=0;exitX=0.5;exitY=1;exitDx=0;exitDy=0;entryX=1;entryY=0;entryDx=0;entryDy=0;" edge="1" parent="1" source="j_C7mCFHIU3GXkhyZzB0-29" target="j_C7mCFHIU3GXkhyZzB0-8">
          <mxGeometry width="160" relative="1" as="geometry">
            <mxPoint x="952" y="270" as="sourcePoint" />
            <mxPoint x="950.2500000000005" y="440.0000000000001" as="targetPoint" />
          </mxGeometry>
        </mxCell>
        <mxCell id="j_C7mCFHIU3GXkhyZzB0-31" style="edgeStyle=orthogonalEdgeStyle;rounded=0;orthogonalLoop=1;jettySize=auto;html=1;endArrow=block;endFill=0;" edge="1" parent="1" source="j_C7mCFHIU3GXkhyZzB0-34" target="j_C7mCFHIU3GXkhyZzB0-37">
          <mxGeometry relative="1" as="geometry">
            <Array as="points">
              <mxPoint x="1130" y="850" />
              <mxPoint x="1130" y="770" />
            </Array>
          </mxGeometry>
        </mxCell>
        <mxCell id="j_C7mCFHIU3GXkhyZzB0-32" style="edgeStyle=orthogonalEdgeStyle;rounded=0;orthogonalLoop=1;jettySize=auto;html=1;entryX=0.5;entryY=1;entryDx=0;entryDy=0;" edge="1" parent="1" source="j_C7mCFHIU3GXkhyZzB0-34" target="j_C7mCFHIU3GXkhyZzB0-25">
          <mxGeometry relative="1" as="geometry">
            <Array as="points">
              <mxPoint x="900" y="850" />
            </Array>
          </mxGeometry>
        </mxCell>
        <mxCell id="j_C7mCFHIU3GXkhyZzB0-33" style="edgeStyle=orthogonalEdgeStyle;rounded=0;orthogonalLoop=1;jettySize=auto;html=1;entryX=0.5;entryY=1;entryDx=0;entryDy=0;" edge="1" parent="1" source="j_C7mCFHIU3GXkhyZzB0-34" target="j_C7mCFHIU3GXkhyZzB0-12">
          <mxGeometry relative="1" as="geometry">
            <Array as="points">
              <mxPoint x="925" y="820" />
              <mxPoint x="1020" y="820" />
            </Array>
          </mxGeometry>
        </mxCell>
        <mxCell id="j_C7mCFHIU3GXkhyZzB0-34" value="Thành viên" style="shape=umlActor;verticalLabelPosition=bottom;verticalAlign=top;html=1;outlineConnect=0;" vertex="1" parent="1">
          <mxGeometry x="910" y="840" width="30" height="60" as="geometry" />
        </mxCell>
        <mxCell id="j_C7mCFHIU3GXkhyZzB0-35" style="edgeStyle=orthogonalEdgeStyle;rounded=0;orthogonalLoop=1;jettySize=auto;html=1;" edge="1" parent="1" source="j_C7mCFHIU3GXkhyZzB0-37" target="j_C7mCFHIU3GXkhyZzB0-28">
          <mxGeometry relative="1" as="geometry">
            <Array as="points">
              <mxPoint x="1160" y="750" />
            </Array>
          </mxGeometry>
        </mxCell>
        <mxCell id="j_C7mCFHIU3GXkhyZzB0-36" style="edgeStyle=orthogonalEdgeStyle;rounded=0;orthogonalLoop=1;jettySize=auto;html=1;entryX=0.5;entryY=1;entryDx=0;entryDy=0;" edge="1" parent="1" source="j_C7mCFHIU3GXkhyZzB0-37" target="j_C7mCFHIU3GXkhyZzB0-27">
          <mxGeometry relative="1" as="geometry">
            <Array as="points">
              <mxPoint x="1310" y="750" />
            </Array>
          </mxGeometry>
        </mxCell>
        <mxCell id="j_C7mCFHIU3GXkhyZzB0-37" value="Người dùng khách" style="shape=umlActor;verticalLabelPosition=bottom;verticalAlign=top;html=1;outlineConnect=0;" vertex="1" parent="1">
          <mxGeometry x="1210" y="720" width="30" height="60" as="geometry" />
        </mxCell>
        <mxCell id="j_C7mCFHIU3GXkhyZzB0-38" style="edgeStyle=orthogonalEdgeStyle;rounded=0;orthogonalLoop=1;jettySize=auto;html=1;entryX=1;entryY=0.3333333333333333;entryDx=0;entryDy=0;entryPerimeter=0;endArrow=block;endFill=0;" edge="1" parent="1" source="j_C7mCFHIU3GXkhyZzB0-24">
          <mxGeometry relative="1" as="geometry">
            <mxPoint x="1390" y="470" as="sourcePoint" />
            <mxPoint x="940" y="870" as="targetPoint" />
            <Array as="points">
              <mxPoint x="1450" y="460" />
              <mxPoint x="1450" y="870" />
            </Array>
          </mxGeometry>
        </mxCell>
      </root>
    </mxGraphModel>
  </diagram>
</mxfile>
